<svg xmlns="http://www.w3.org/2000/svg" xmlns:xlink="http://www.w3.org/1999/xlink" width="53" zoomAndPan="magnify" viewBox="0 0 39.75 39.749999" height="53" preserveAspectRatio="xMidYMid meet" version="1.0"><defs><clipPath id="918ddfbe4b"><path d="M 2 12 L 25 12 L 25 35.253906 L 2 35.253906 Z M 2 12 " clip-rule="nonzero"/></clipPath><clipPath id="75d9ac87d8"><path d="M 17 4 L 37.695312 4 L 37.695312 20 L 17 20 Z M 17 4 " clip-rule="nonzero"/></clipPath></defs><g clip-path="url(#918ddfbe4b)"><path fill="#ffffff" d="M 24.714844 15.015625 L 18.070312 21.664062 C 17.589844 22.144531 17.214844 22.699219 16.945312 23.324219 L 16.902344 23.421875 C 16.632812 24.046875 16.257812 24.601562 15.777344 25.082031 L 6.242188 34.621094 C 6.019531 34.84375 5.761719 35.015625 5.46875 35.136719 C 5.179688 35.257812 4.875 35.316406 4.558594 35.316406 C 4.242188 35.316406 3.9375 35.257812 3.644531 35.136719 C 3.355469 35.015625 3.097656 34.84375 2.871094 34.621094 C 2.648438 34.398438 2.476562 34.140625 2.355469 33.847656 C 2.234375 33.554688 2.175781 33.25 2.175781 32.9375 C 2.175781 32.621094 2.234375 32.316406 2.355469 32.023438 C 2.476562 31.730469 2.648438 31.472656 2.871094 31.25 L 12.386719 21.734375 C 12.878906 21.238281 13.449219 20.855469 14.09375 20.582031 C 14.738281 20.308594 15.308594 19.929688 15.800781 19.433594 L 22.46875 12.773438 C 22.554688 12.6875 22.632812 12.691406 22.703125 12.785156 C 23 13.152344 23.316406 13.503906 23.648438 13.839844 C 23.984375 14.175781 24.335938 14.492188 24.703125 14.789062 C 24.792969 14.863281 24.796875 14.941406 24.714844 15.023438 Z M 24.714844 15.015625 " fill-opacity="1" fill-rule="nonzero"/></g><g clip-path="url(#75d9ac87d8)"><path fill="#ffffff" d="M 37.351562 14.773438 L 35.78125 13.203125 C 35.6875 13.109375 35.574219 13.0625 35.441406 13.0625 C 35.3125 13.0625 35.199219 13.109375 35.105469 13.203125 C 34.394531 13.164062 33.785156 12.894531 33.28125 12.390625 L 33.226562 12.335938 C 33.015625 12.113281 32.859375 11.855469 32.765625 11.566406 C 32.671875 11.292969 32.523438 11.058594 32.320312 10.855469 L 30.394531 8.929688 C 29.582031 8.117188 28.691406 7.402344 27.722656 6.78125 C 26.757812 6.164062 25.734375 5.65625 24.65625 5.257812 C 23.578125 4.859375 22.46875 4.582031 21.332031 4.425781 C 20.195312 4.269531 19.050781 4.238281 17.90625 4.328125 C 17.820312 4.335938 17.773438 4.386719 17.765625 4.472656 C 17.757812 4.558594 17.792969 4.613281 17.878906 4.640625 C 19.234375 5.007812 20.410156 5.691406 21.402344 6.6875 L 23.253906 8.539062 C 23.421875 8.707031 23.503906 8.90625 23.503906 9.140625 C 23.503906 9.375 23.421875 9.574219 23.253906 9.742188 L 22.390625 10.605469 C 22.304688 10.695312 22.292969 10.789062 22.355469 10.898438 C 23.414062 12.660156 24.824219 14.074219 26.589844 15.132812 C 26.695312 15.195312 26.792969 15.183594 26.878906 15.097656 L 27.742188 14.234375 C 27.910156 14.066406 28.109375 13.984375 28.34375 13.984375 C 28.582031 13.984375 28.78125 14.066406 28.945312 14.234375 C 29.167969 14.445312 29.425781 14.601562 29.714844 14.695312 C 29.984375 14.792969 30.21875 14.941406 30.421875 15.144531 L 30.472656 15.199219 C 30.976562 15.699219 31.25 16.308594 31.285156 17.019531 C 31.191406 17.113281 31.144531 17.222656 31.144531 17.355469 C 31.144531 17.488281 31.191406 17.601562 31.285156 17.691406 L 32.859375 19.265625 C 32.953125 19.359375 33.0625 19.40625 33.195312 19.40625 C 33.328125 19.40625 33.441406 19.359375 33.53125 19.265625 L 37.351562 15.445312 C 37.445312 15.351562 37.492188 15.242188 37.492188 15.109375 C 37.492188 14.976562 37.445312 14.867188 37.351562 14.773438 Z M 37.351562 14.773438 " fill-opacity="1" fill-rule="nonzero"/></g></svg>