<svg xmlns="http://www.w3.org/2000/svg" xmlns:xlink="http://www.w3.org/1999/xlink" width="50" zoomAndPan="magnify" viewBox="0 0 37.5 37.499999" height="50" preserveAspectRatio="xMidYMid meet" version="1.0"><defs><clipPath id="d8f5deb779"><path d="M 0 33 L 37.007812 33 L 37.007812 35.894531 L 0 35.894531 Z M 0 33 " clip-rule="nonzero"/></clipPath><clipPath id="42b12e58a7"><path d="M 1 1.109375 L 36 1.109375 L 36 33 L 1 33 Z M 1 1.109375 " clip-rule="nonzero"/></clipPath></defs><g clip-path="url(#d8f5deb779)"><path fill="#d01e2a" d="M 35.667969 33.660156 L 1.335938 33.660156 C 0.597656 33.660156 0 34.257812 0 34.996094 L 0 35.890625 L 37.003906 35.890625 L 37.003906 34.996094 C 37.003906 34.257812 36.40625 33.660156 35.667969 33.660156 " fill-opacity="1" fill-rule="nonzero"/></g><path fill="#d01e2a" d="M 12.589844 6.347656 C 11.988281 6.207031 11.371094 6.058594 10.730469 5.910156 C 10.730469 7.027344 10.730469 8.128906 10.730469 9.257812 C 11.335938 9.371094 11.953125 9.488281 12.589844 9.609375 C 12.589844 8.519531 12.589844 7.449219 12.589844 6.347656 " fill-opacity="1" fill-rule="nonzero"/><path fill="#d01e2a" d="M 12.382812 10.710938 C 11.882812 10.640625 11.390625 10.542969 10.894531 10.457031 C 10.84375 10.449219 10.789062 10.457031 10.722656 10.457031 C 10.71875 10.515625 10.710938 10.574219 10.710938 10.632812 C 10.710938 11.613281 10.714844 12.597656 10.707031 13.578125 C 10.707031 13.726562 10.746094 13.785156 10.902344 13.800781 C 11.398438 13.851562 11.886719 13.921875 12.382812 13.984375 C 12.445312 13.992188 12.511719 13.996094 12.605469 14 C 12.605469 13.574219 12.605469 13.175781 12.605469 12.777344 C 12.605469 12.183594 12.597656 11.585938 12.609375 10.988281 C 12.613281 10.808594 12.574219 10.738281 12.382812 10.710938 " fill-opacity="1" fill-rule="nonzero"/><path fill="#d01e2a" d="M 12.59375 15.15625 C 11.976562 15.089844 11.359375 15.023438 10.726562 14.953125 C 10.726562 16.074219 10.726562 17.175781 10.726562 18.292969 C 11.351562 18.332031 11.964844 18.371094 12.59375 18.410156 C 12.59375 17.324219 12.59375 16.253906 12.59375 15.15625 " fill-opacity="1" fill-rule="nonzero"/><path fill="#d01e2a" d="M 12.589844 19.554688 C 11.964844 19.523438 11.359375 19.496094 10.730469 19.46875 C 10.730469 20.582031 10.730469 21.683594 10.730469 22.796875 C 11.347656 22.796875 11.960938 22.796875 12.589844 22.796875 C 12.589844 21.722656 12.589844 20.648438 12.589844 19.554688 " fill-opacity="1" fill-rule="nonzero"/><path fill="#d01e2a" d="M 13.78125 9.832031 C 14.296875 9.917969 14.808594 10.019531 15.347656 10.121094 C 15.347656 9.058594 15.347656 8.03125 15.347656 6.988281 C 14.777344 6.855469 14.214844 6.722656 13.621094 6.582031 C 13.617188 6.660156 13.605469 6.722656 13.605469 6.78125 C 13.605469 7.726562 13.609375 8.667969 13.605469 9.609375 C 13.601562 9.746094 13.636719 9.804688 13.78125 9.832031 " fill-opacity="1" fill-rule="nonzero"/><path fill="#d01e2a" d="M 13.808594 14.164062 C 14.316406 14.214844 14.824219 14.289062 15.34375 14.355469 C 15.34375 13.308594 15.34375 12.273438 15.34375 11.222656 C 14.777344 11.125 14.210938 11.027344 13.621094 10.925781 C 13.617188 11 13.605469 11.0625 13.605469 11.125 C 13.605469 12.0625 13.609375 13 13.601562 13.933594 C 13.601562 14.09375 13.648438 14.148438 13.808594 14.164062 " fill-opacity="1" fill-rule="nonzero"/><path fill="#d01e2a" d="M 13.710938 18.472656 C 14.25 18.519531 14.792969 18.546875 15.34375 18.582031 C 15.347656 18.507812 15.355469 18.457031 15.355469 18.40625 C 15.355469 17.484375 15.355469 16.558594 15.355469 15.636719 C 15.355469 15.546875 15.378906 15.449219 15.234375 15.433594 C 14.71875 15.382812 14.207031 15.328125 13.691406 15.273438 C 13.671875 15.273438 13.652344 15.277344 13.605469 15.285156 C 13.605469 15.777344 13.605469 16.253906 13.605469 16.730469 C 13.605469 17.257812 13.601562 17.78125 13.609375 18.304688 C 13.613281 18.363281 13.671875 18.46875 13.710938 18.472656 " fill-opacity="1" fill-rule="nonzero"/><path fill="#d01e2a" d="M 15.339844 19.683594 C 14.769531 19.65625 14.203125 19.628906 13.621094 19.601562 C 13.621094 20.675781 13.621094 21.726562 13.621094 22.800781 C 14.199219 22.800781 14.757812 22.800781 15.339844 22.800781 C 15.339844 21.765625 15.339844 20.738281 15.339844 19.683594 " fill-opacity="1" fill-rule="nonzero"/><path fill="#d01e2a" d="M 12.609375 24.289062 C 11.984375 24.261719 11.375 24.234375 10.75 24.203125 C 10.75 25.316406 10.75 26.417969 10.75 27.53125 C 11.367188 27.53125 11.980469 27.53125 12.609375 27.53125 C 12.609375 26.457031 12.609375 25.386719 12.609375 24.289062 " fill-opacity="1" fill-rule="nonzero"/><path fill="#d01e2a" d="M 15.355469 24.417969 C 14.789062 24.390625 14.222656 24.363281 13.640625 24.335938 C 13.640625 25.410156 13.640625 26.460938 13.640625 27.535156 C 14.214844 27.535156 14.777344 27.535156 15.355469 27.535156 C 15.355469 26.5 15.355469 25.472656 15.355469 24.417969 " fill-opacity="1" fill-rule="nonzero"/><path fill="#d01e2a" d="M 27.679688 11.917969 C 27.125 11.796875 26.574219 11.660156 26 11.523438 C 26 12.65625 26 13.757812 26 14.875 C 26.621094 14.992188 27.234375 15.105469 27.871094 15.222656 C 27.875 15.140625 27.878906 15.074219 27.878906 15.011719 C 27.878906 14.0625 27.875 13.113281 27.882812 12.164062 C 27.882812 12.007812 27.832031 11.953125 27.679688 11.917969 " fill-opacity="1" fill-rule="nonzero"/><path fill="#d01e2a" d="M 27.691406 20.753906 C 27.167969 20.707031 26.652344 20.640625 26.128906 20.585938 C 26.09375 20.582031 26.054688 20.585938 26.003906 20.585938 C 26.003906 21.695312 26.003906 22.792969 26.003906 23.914062 C 26.617188 23.957031 27.230469 23.996094 27.867188 24.035156 C 27.871094 23.964844 27.878906 23.902344 27.878906 23.839844 C 27.878906 22.886719 27.875 21.929688 27.882812 20.976562 C 27.882812 20.832031 27.851562 20.765625 27.691406 20.753906 " fill-opacity="1" fill-rule="nonzero"/><path fill="#d01e2a" d="M 26.199219 19.421875 C 26.679688 19.472656 27.160156 19.542969 27.636719 19.605469 C 27.710938 19.613281 27.78125 19.613281 27.878906 19.617188 C 27.878906 18.984375 27.878906 18.378906 27.878906 17.777344 C 27.878906 17.371094 27.875 16.96875 27.882812 16.5625 C 27.882812 16.425781 27.851562 16.363281 27.703125 16.339844 C 27.191406 16.261719 26.683594 16.164062 26.175781 16.078125 C 26.125 16.070312 26.070312 16.070312 25.992188 16.066406 C 25.992188 16.140625 25.992188 16.203125 25.992188 16.269531 C 25.992188 17.246094 25.992188 18.222656 25.988281 19.195312 C 25.984375 19.359375 26.035156 19.410156 26.199219 19.421875 " fill-opacity="1" fill-rule="nonzero"/><path fill="#d01e2a" d="M 27.671875 25.160156 C 27.121094 25.148438 26.574219 25.121094 26 25.097656 C 26 26.21875 26 27.308594 26 28.417969 C 26.621094 28.417969 27.234375 28.417969 27.867188 28.417969 C 27.871094 28.355469 27.878906 28.289062 27.878906 28.226562 C 27.878906 27.277344 27.875 26.332031 27.882812 25.382812 C 27.882812 25.21875 27.835938 25.164062 27.671875 25.160156 " fill-opacity="1" fill-rule="nonzero"/><path fill="#d01e2a" d="M 29.054688 15.453125 C 29.570312 15.542969 30.082031 15.644531 30.609375 15.742188 C 30.609375 14.699219 30.609375 13.667969 30.609375 12.605469 C 30.054688 12.476562 29.492188 12.34375 28.898438 12.203125 C 28.894531 12.289062 28.886719 12.34375 28.886719 12.402344 C 28.886719 13.34375 28.886719 14.285156 28.882812 15.230469 C 28.882812 15.359375 28.90625 15.429688 29.054688 15.453125 " fill-opacity="1" fill-rule="nonzero"/><path fill="#d01e2a" d="M 30.609375 21.074219 C 30.050781 21.015625 29.488281 20.953125 28.898438 20.886719 C 28.894531 20.96875 28.886719 21.027344 28.886719 21.085938 C 28.886719 22.023438 28.890625 22.957031 28.882812 23.890625 C 28.882812 24.054688 28.929688 24.109375 29.09375 24.117188 C 29.59375 24.136719 30.097656 24.171875 30.609375 24.203125 C 30.609375 23.15625 30.609375 22.132812 30.609375 21.074219 " fill-opacity="1" fill-rule="nonzero"/><path fill="#d01e2a" d="M 30.613281 16.839844 C 30.039062 16.742188 29.484375 16.648438 28.902344 16.546875 C 28.898438 16.628906 28.886719 16.695312 28.886719 16.761719 C 28.886719 17.691406 28.890625 18.621094 28.882812 19.550781 C 28.882812 19.703125 28.917969 19.765625 29.085938 19.785156 C 29.589844 19.832031 30.09375 19.90625 30.613281 19.972656 C 30.613281 18.925781 30.613281 17.890625 30.613281 16.839844 " fill-opacity="1" fill-rule="nonzero"/><path fill="#d01e2a" d="M 28.902344 28.421875 C 29.476562 28.421875 30.035156 28.421875 30.609375 28.421875 C 30.609375 27.382812 30.609375 26.351562 30.609375 25.308594 C 30.039062 25.28125 29.480469 25.253906 28.902344 25.226562 C 28.902344 26.296875 28.902344 27.347656 28.902344 28.421875 " fill-opacity="1" fill-rule="nonzero"/><g clip-path="url(#42b12e58a7)"><path fill="#d01e2a" d="M 3.644531 32.609375 L 9.546875 32.609375 L 9.546875 4.058594 C 9.953125 4.164062 10.332031 4.261719 10.707031 4.363281 C 12.570312 4.863281 14.429688 5.363281 16.296875 5.859375 C 16.4375 5.894531 16.488281 5.941406 16.488281 6.089844 C 16.484375 14.375 16.484375 22.65625 16.484375 30.9375 C 16.484375 30.988281 16.480469 31.042969 16.476562 31.121094 L 16.296875 31.121094 C 15.65625 31.121094 15.136719 31.640625 15.136719 32.28125 L 15.136719 32.726562 L 24.742188 32.726562 L 24.742188 9.355469 C 25.132812 9.460938 25.488281 9.554688 25.84375 9.648438 C 27.707031 10.148438 29.570312 10.648438 31.4375 11.140625 C 31.625 11.191406 31.683594 11.265625 31.683594 11.460938 C 31.675781 18.40625 31.679688 25.351562 31.679688 32.300781 L 31.679688 32.589844 L 35.484375 32.589844 L 35.484375 32.148438 C 35.484375 31.507812 34.964844 30.988281 34.324219 30.988281 L 33.300781 30.988281 L 33.300781 30.695312 C 33.300781 24.136719 33.300781 17.582031 33.304688 11.023438 C 33.304688 10.765625 33.304688 10.503906 33.304688 10.246094 C 33.304688 10.050781 33.261719 9.960938 33.058594 9.910156 C 32.722656 9.816406 32.386719 9.726562 32.050781 9.632812 L 32.054688 9.136719 C 32.054688 9.136719 32.058594 8.328125 32.058594 8.328125 C 31.949219 8.300781 31.84375 8.277344 31.734375 8.25 C 31.582031 8.214844 31.429688 8.175781 31.277344 8.140625 C 31.261719 8.136719 31.246094 8.132812 31.226562 8.128906 L 30.890625 8.046875 L 30.402344 8.230469 C 30.367188 8.238281 30.328125 8.253906 30.328125 8.257812 C 30.328125 8.257812 30.328125 8.261719 30.328125 8.265625 C 30.324219 8.566406 30.324219 8.867188 30.324219 9.171875 C 29.9375 9.066406 29.546875 8.960938 29.160156 8.855469 C 29.160156 8.847656 29.160156 8.835938 29.160156 8.824219 C 29.160156 8.710938 29.160156 8.597656 29.160156 8.484375 C 29.160156 8.433594 29.160156 8.382812 29.160156 8.328125 L 29.164062 7.519531 C 29.058594 7.492188 28.949219 7.46875 28.84375 7.441406 C 28.691406 7.40625 28.535156 7.367188 28.382812 7.332031 C 28.367188 7.328125 28.351562 7.324219 28.335938 7.320312 L 27.996094 7.238281 L 27.511719 7.421875 C 27.472656 7.429688 27.4375 7.445312 27.4375 7.449219 C 27.4375 7.742188 27.4375 8.035156 27.433594 8.324219 C 27.433594 8.34375 27.433594 8.367188 27.433594 8.386719 C 27.046875 8.285156 26.660156 8.179688 26.273438 8.070312 L 26.277344 6.703125 C 25.941406 6.625 25.605469 6.542969 25.246094 6.457031 C 25.246094 6.460938 25.105469 6.425781 25.105469 6.425781 L 24.621094 6.605469 C 24.597656 6.613281 24.574219 6.621094 24.5625 6.628906 C 24.558594 6.628906 24.550781 6.628906 24.546875 6.632812 C 24.546875 6.925781 24.546875 7.21875 24.542969 7.511719 C 24.542969 7.511719 24.542969 7.601562 24.542969 7.601562 C 24.152344 7.496094 23.757812 7.390625 23.367188 7.28125 C 23.199219 7.238281 23.085938 7.273438 22.941406 7.371094 C 22.78125 7.476562 22.621094 7.582031 22.457031 7.6875 C 22.324219 7.773438 22.1875 7.863281 22.050781 7.953125 C 21.851562 8.082031 21.65625 8.21875 21.457031 8.347656 C 21.253906 8.484375 21.054688 8.617188 20.851562 8.75 C 20.648438 8.886719 20.449219 9.019531 20.246094 9.152344 C 20.042969 9.289062 19.84375 9.421875 19.640625 9.554688 C 19.4375 9.6875 19.234375 9.820312 19.03125 9.953125 C 18.886719 10.050781 18.832031 10.144531 18.832031 10.320312 C 18.835938 17.101562 18.835938 23.882812 18.835938 30.664062 L 18.835938 30.960938 L 18.113281 30.960938 L 18.113281 30.699219 C 18.113281 23.210938 18.109375 15.722656 18.113281 8.234375 C 18.113281 7.527344 18.113281 6.824219 18.113281 6.117188 C 18.113281 5.726562 18.113281 5.332031 18.117188 4.9375 C 18.117188 4.742188 18.074219 4.652344 17.867188 4.601562 C 17.53125 4.511719 17.195312 4.421875 16.859375 4.328125 L 16.859375 3.832031 L 16.863281 3.832031 L 16.863281 3.023438 C 16.753906 2.996094 16.644531 2.972656 16.539062 2.945312 C 16.386719 2.910156 16.234375 2.875 16.082031 2.839844 C 16.0625 2.832031 16.046875 2.832031 16.03125 2.824219 L 15.691406 2.746094 L 15.207031 2.929688 C 15.171875 2.941406 15.132812 2.953125 15.132812 2.957031 C 15.132812 2.957031 15.132812 2.960938 15.132812 2.964844 C 15.132812 3.265625 15.132812 3.566406 15.132812 3.871094 C 14.742188 3.765625 14.355469 3.664062 13.964844 3.558594 L 13.964844 2.222656 C 13.859375 2.199219 13.75 2.171875 13.644531 2.148438 C 13.492188 2.109375 13.339844 2.074219 13.1875 2.039062 C 13.167969 2.035156 13.152344 2.03125 13.136719 2.027344 L 12.796875 1.945312 L 12.3125 2.128906 C 12.277344 2.140625 12.238281 2.152344 12.238281 2.15625 C 12.238281 2.449219 12.238281 2.742188 12.238281 3.035156 C 12.238281 3.054688 12.238281 3.074219 12.238281 3.09375 C 11.851562 2.992188 11.460938 2.890625 11.074219 2.785156 L 11.074219 1.414062 C 10.742188 1.335938 10.402344 1.257812 10.046875 1.171875 C 10.046875 1.171875 10.046875 1.171875 10.046875 1.175781 L 9.90625 1.140625 L 9.417969 1.324219 C 9.394531 1.332031 9.375 1.339844 9.359375 1.34375 C 9.355469 1.34375 9.351562 1.347656 9.347656 1.347656 L 9.347656 1.351562 C 9.347656 1.644531 9.347656 1.9375 9.34375 2.226562 L 9.347656 2.226562 L 9.34375 2.320312 C 8.953125 2.214844 8.558594 2.109375 8.167969 2.003906 C 8 1.957031 7.871094 1.976562 7.726562 2.074219 C 7.367188 2.3125 7.003906 2.546875 6.644531 2.785156 C 5.699219 3.40625 4.757812 4.027344 3.8125 4.640625 C 3.6875 4.722656 3.640625 4.8125 3.640625 4.960938 C 3.644531 13.644531 3.644531 22.328125 3.644531 31.011719 L 2.683594 31.011719 C 2.042969 31.011719 1.523438 31.53125 1.523438 32.171875 L 1.523438 32.59375 C 2.226562 32.601562 2.929688 32.605469 3.632812 32.609375 C 3.636719 32.609375 3.640625 32.609375 3.644531 32.609375 " fill-opacity="1" fill-rule="nonzero"/></g></svg>