<svg xmlns="http://www.w3.org/2000/svg" xmlns:xlink="http://www.w3.org/1999/xlink" width="50" zoomAndPan="magnify" viewBox="0 0 37.5 37.499999" height="50" preserveAspectRatio="xMidYMid meet" version="1.0"><defs><clipPath id="03d80fc103"><path d="M 1.296875 0 L 36 0 L 36 37 L 1.296875 37 Z M 1.296875 0 " clip-rule="nonzero"/></clipPath></defs><g clip-path="url(#03d80fc103)"><path fill="#d01e2a" d="M 32.816406 19.617188 C 30.636719 28.125 25.820312 33.546875 18.503906 35.738281 C 11.195312 33.550781 6.382812 28.140625 4.199219 19.648438 C 2.832031 14.328125 2.976562 9.386719 3.070312 7.777344 C 9.902344 7.5625 15.605469 3.535156 18.503906 1.429688 C 21.386719 3.511719 27.105469 7.5625 33.9375 7.777344 C 34.03125 9.378906 34.175781 14.300781 32.816406 19.617188 Z M 35.117188 7.113281 C 35.085938 6.796875 34.820312 6.558594 34.507812 6.558594 C 27.691406 6.558594 22.078125 2.5 19.0625 0.316406 L 18.863281 0.171875 C 18.648438 0.015625 18.359375 0.015625 18.144531 0.171875 L 17.988281 0.285156 C 15.183594 2.320312 9.351562 6.558594 2.5 6.558594 C 2.183594 6.558594 1.921875 6.796875 1.886719 7.113281 C 1.863281 7.359375 1.292969 13.257812 3 19.921875 C 5.28125 28.820312 10.582031 34.714844 18.332031 36.96875 C 18.386719 36.984375 18.445312 36.992188 18.503906 36.992188 C 18.5625 36.992188 18.621094 36.984375 18.675781 36.96875 C 26.425781 34.714844 31.726562 28.820312 34.007812 19.921875 C 35.710938 13.257812 35.144531 7.359375 35.117188 7.113281 " fill-opacity="1" fill-rule="nonzero"/></g><path fill="#d01e2a" d="M 25.285156 13.71875 L 17.410156 23.976562 C 17.203125 24.242188 16.898438 24.417969 16.5625 24.457031 C 16.515625 24.460938 16.46875 24.464844 16.417969 24.464844 C 16.132812 24.464844 15.855469 24.363281 15.628906 24.183594 L 11.660156 20.929688 C 11.128906 20.496094 11.050781 19.710938 11.484375 19.175781 C 11.921875 18.644531 12.707031 18.566406 13.238281 19.003906 L 16.214844 21.4375 L 23.308594 12.199219 C 23.726562 11.652344 24.511719 11.550781 25.058594 11.96875 C 25.601562 12.390625 25.707031 13.171875 25.285156 13.71875 Z M 18.503906 3.828125 C 15.839844 5.75 10.996094 9.023438 5.164062 9.382812 C 5.011719 13.46875 5.289062 29.320312 18.503906 33.40625 C 31.714844 29.320312 31.996094 13.46875 31.84375 9.382812 C 26.011719 9.019531 21.152344 5.734375 18.503906 3.828125 " fill-opacity="1" fill-rule="nonzero"/></svg>