<svg xmlns="http://www.w3.org/2000/svg" xmlns:xlink="http://www.w3.org/1999/xlink" width="50" zoomAndPan="magnify" viewBox="0 0 37.5 37.499999" height="50" preserveAspectRatio="xMidYMid meet" version="1.0"><path fill="#d01e2a" d="M 35.832031 6.902344 L 31.964844 10.910156 C 31.414062 11.460938 30.585938 11.460938 30.035156 10.910156 L 26.027344 6.902344 C 25.476562 6.351562 25.476562 5.523438 26.027344 4.972656 L 30.035156 0.964844 C 27.273438 0 22.851562 2.070312 20.917969 3.867188 C 18.15625 6.628906 19.675781 10.496094 22.851562 13.808594 C 26.027344 17.121094 30.035156 18.503906 32.796875 15.742188 C 34.726562 13.945312 36.800781 9.527344 35.832031 6.902344 Z M 35.832031 6.902344 " fill-opacity="1" fill-rule="nonzero"/><path fill="#d01e2a" d="M 7.113281 22.785156 C 3.246094 22.785156 0.207031 25.820312 0.207031 29.6875 C 0.207031 33.554688 3.246094 36.59375 7.113281 36.59375 C 10.976562 36.59375 14.015625 33.554688 14.015625 29.6875 C 14.015625 25.820312 10.976562 22.785156 7.113281 22.785156 Z M 9.734375 32.3125 L 6.144531 33.277344 L 3.519531 30.65625 L 4.488281 27.066406 L 8.078125 26.097656 L 10.703125 28.722656 Z M 9.734375 32.3125 " fill-opacity="1" fill-rule="nonzero"/><path fill="#d01e2a" d="M 19.953125 16.570312 C 21.058594 15.605469 22.714844 15.605469 23.820312 16.570312 L 24.371094 17.121094 C 24.371094 17.121094 24.371094 17.121094 24.511719 17.261719 L 28.929688 12.84375 L 24.09375 8.007812 L 17.882812 14.222656 Z M 19.953125 16.570312 " fill-opacity="1" fill-rule="nonzero"/><path fill="#d01e2a" d="M 16.640625 24.71875 L 16.226562 24.164062 C 15.121094 23.058594 15.121094 21.402344 16.085938 20.296875 L 13.738281 17.949219 L 7.527344 24.164062 L 12.359375 28.996094 L 16.640625 24.71875 C 16.777344 24.71875 16.777344 24.71875 16.640625 24.71875 Z M 16.640625 24.71875 " fill-opacity="1" fill-rule="nonzero"/><path fill="#d01e2a" d="M 20.367188 19.054688 L 7.25 5.9375 L 7.527344 3.867188 L 2.003906 0.691406 L 0.207031 2.484375 L 3.382812 8.007812 L 5.453125 7.734375 L 18.574219 20.851562 Z M 20.367188 19.054688 " fill-opacity="1" fill-rule="nonzero"/><path fill="#d01e2a" d="M 35.003906 29.828125 L 27.546875 22.371094 C 26.855469 21.679688 25.890625 21.402344 25.0625 21.679688 L 23.265625 20.023438 C 23.679688 19.46875 23.679688 18.640625 23.265625 18.226562 L 22.714844 17.675781 C 22.164062 17.121094 21.335938 17.121094 20.78125 17.675781 L 17.054688 21.402344 C 16.5 21.957031 16.5 22.785156 17.054688 23.335938 L 17.605469 23.886719 C 18.15625 24.441406 18.988281 24.441406 19.402344 23.886719 L 21.058594 25.546875 C 20.917969 26.375 21.058594 27.339844 21.75 28.03125 L 29.203125 35.488281 C 30.722656 37.007812 33.210938 37.007812 34.726562 35.488281 C 36.523438 33.832031 36.523438 31.34375 35.003906 29.828125 Z M 33.070312 33.554688 C 32.796875 33.832031 32.378906 33.832031 32.105469 33.554688 L 23.957031 25.40625 C 23.679688 25.132812 23.679688 24.71875 23.957031 24.441406 C 24.234375 24.164062 24.648438 24.164062 24.925781 24.441406 L 33.070312 32.585938 C 33.347656 32.863281 33.347656 33.277344 33.070312 33.554688 Z M 33.070312 33.554688 " fill-opacity="1" fill-rule="nonzero"/></svg>