<svg xmlns="http://www.w3.org/2000/svg" xmlns:xlink="http://www.w3.org/1999/xlink" width="50" zoomAndPan="magnify" viewBox="0 0 37.5 37.499999" height="50" preserveAspectRatio="xMidYMid meet" version="1.0"><defs><clipPath id="8cdf9e83a0"><path d="M 1 13 L 36 13 L 36 32.449219 L 1 32.449219 Z M 1 13 " clip-rule="nonzero"/></clipPath><clipPath id="3865f9ecfa"><path d="M 0 7 L 37.007812 7 L 37.007812 14 L 0 14 Z M 0 7 " clip-rule="nonzero"/></clipPath><clipPath id="46313dcdbe"><path d="M 7 4.324219 L 30 4.324219 L 30 10 L 7 10 Z M 7 4.324219 " clip-rule="nonzero"/></clipPath><clipPath id="a422ee75b0"><path d="M 7 4.324219 L 10 4.324219 L 10 6 L 7 6 Z M 7 4.324219 " clip-rule="nonzero"/></clipPath><clipPath id="fa13f97960"><path d="M 28 4.324219 L 30 4.324219 L 30 6 L 28 6 Z M 28 4.324219 " clip-rule="nonzero"/></clipPath></defs><g clip-path="url(#8cdf9e83a0)"><path fill="#d01e2a" d="M 2.140625 13.257812 C 2.046875 13.453125 1.996094 13.667969 1.996094 13.894531 L 1.996094 31.277344 C 1.996094 31.648438 2.132812 32 2.382812 32.261719 C 2.636719 32.527344 2.964844 32.675781 3.320312 32.675781 L 33.679688 32.675781 C 34.03125 32.675781 34.363281 32.53125 34.613281 32.261719 C 34.867188 32 35.003906 31.644531 35.003906 31.277344 L 35.003906 13.894531 C 35.003906 13.667969 34.953125 13.453125 34.859375 13.257812 Z M 25.101562 16.589844 L 28.554688 16.589844 L 28.554688 19.765625 L 25.101562 19.765625 Z M 32.671875 28.976562 L 22.3125 28.976562 L 22.3125 25.828125 L 32.671875 25.828125 Z M 20.96875 16.589844 L 24.421875 16.589844 L 24.421875 19.765625 L 20.96875 19.765625 Z M 16.835938 16.589844 L 20.289062 16.589844 L 20.289062 19.765625 L 16.835938 19.765625 Z M 12.707031 16.589844 L 16.160156 16.589844 L 16.160156 19.765625 L 12.707031 19.765625 Z M 14.421875 28.976562 L 4.058594 28.976562 L 4.058594 25.828125 L 14.421875 25.828125 Z M 8.570312 16.589844 L 12.023438 16.589844 L 12.023438 19.765625 L 8.570312 19.765625 Z M 4.441406 16.589844 L 7.894531 16.589844 L 7.894531 19.765625 L 4.441406 19.765625 Z M 21.757812 32.433594 L 15.261719 32.433594 L 15.261719 25.570312 L 18.417969 25.570312 L 18.417969 25.582031 L 18.429688 32.421875 L 18.429688 32.429688 L 18.582031 32.429688 L 18.582031 32.425781 L 18.570312 25.585938 L 18.570312 25.574219 L 21.757812 25.574219 Z M 32.683594 19.765625 L 29.230469 19.765625 L 29.230469 16.589844 L 32.683594 16.589844 Z M 32.683594 19.765625 " fill-opacity="1" fill-rule="nonzero"/></g><g clip-path="url(#3865f9ecfa)"><path fill="#d01e2a" d="M 2.132812 13.246094 L 37.007812 13.246094 L 33.738281 7.03125 L 29.613281 7.03125 L 29.613281 8.433594 C 29.613281 9.144531 29.066406 9.71875 28.390625 9.71875 L 9.148438 9.71875 C 8.476562 9.71875 7.929688 9.140625 7.929688 8.433594 L 7.929688 7.03125 L 3.015625 7.03125 L 0 13.246094 Z M 2.132812 13.246094 " fill-opacity="1" fill-rule="nonzero"/></g><g clip-path="url(#46313dcdbe)"><path fill="#d01e2a" d="M 8.292969 4.714844 C 8.0625 4.957031 7.9375 5.277344 7.9375 5.617188 L 7.9375 8.429688 C 7.9375 8.773438 8.0625 9.089844 8.292969 9.332031 C 8.519531 9.570312 8.824219 9.703125 9.144531 9.703125 L 28.390625 9.703125 C 28.714844 9.703125 29.019531 9.570312 29.246094 9.332031 C 29.472656 9.089844 29.601562 8.769531 29.601562 8.429688 L 29.601562 5.617188 C 29.601562 5.273438 29.472656 4.957031 29.246094 4.714844 C 29.019531 4.476562 28.714844 4.34375 28.390625 4.34375 L 9.148438 4.34375 C 8.824219 4.34375 8.519531 4.476562 8.292969 4.714844 Z M 23.4375 6.59375 C 23.695312 6.394531 24.042969 6.292969 24.476562 6.292969 C 24.898438 6.292969 25.238281 6.386719 25.496094 6.574219 C 25.664062 6.695312 25.777344 6.839844 25.835938 7.015625 C 25.835938 7.019531 25.839844 7.023438 25.839844 7.027344 C 25.871094 7.125 25.886719 7.226562 25.886719 7.335938 C 25.886719 7.363281 25.886719 7.398438 25.882812 7.445312 L 24.125 7.445312 C 24.128906 7.566406 24.15625 7.660156 24.210938 7.71875 C 24.265625 7.777344 24.371094 7.804688 24.527344 7.804688 C 24.75 7.804688 24.878906 7.726562 24.917969 7.566406 L 25.878906 7.617188 C 25.824219 7.804688 25.679688 7.964844 25.441406 8.097656 C 25.210938 8.234375 24.894531 8.300781 24.492188 8.300781 C 24.054688 8.300781 23.699219 8.207031 23.4375 8.015625 C 23.171875 7.828125 23.042969 7.59375 23.042969 7.316406 C 23.042969 7.214844 23.058594 7.117188 23.09375 7.023438 C 23.09375 7.019531 23.097656 7.015625 23.097656 7.011719 C 23.160156 6.859375 23.269531 6.71875 23.4375 6.59375 Z M 20.65625 6.582031 C 20.902344 6.386719 21.226562 6.292969 21.625 6.292969 C 21.980469 6.292969 22.269531 6.363281 22.488281 6.511719 C 22.695312 6.648438 22.824219 6.816406 22.863281 7.015625 C 22.863281 7.019531 22.863281 7.023438 22.867188 7.027344 C 22.867188 7.035156 22.871094 7.050781 22.871094 7.058594 L 21.96875 7.113281 C 21.964844 7.082031 21.957031 7.054688 21.949219 7.027344 C 21.949219 7.023438 21.945312 7.019531 21.945312 7.015625 C 21.894531 6.875 21.800781 6.808594 21.652344 6.808594 C 21.542969 6.808594 21.464844 6.84375 21.414062 6.917969 C 21.394531 6.945312 21.382812 6.976562 21.371094 7.015625 C 21.371094 7.019531 21.367188 7.023438 21.367188 7.027344 C 21.347656 7.101562 21.339844 7.191406 21.339844 7.304688 C 21.339844 7.460938 21.363281 7.578125 21.414062 7.65625 C 21.464844 7.730469 21.550781 7.769531 21.675781 7.769531 C 21.863281 7.769531 21.972656 7.675781 22.003906 7.480469 L 22.882812 7.535156 C 22.839844 7.761719 22.710938 7.945312 22.496094 8.085938 C 22.28125 8.230469 21.992188 8.300781 21.632812 8.300781 C 21.234375 8.300781 20.90625 8.207031 20.660156 8.019531 C 20.40625 7.835938 20.28125 7.597656 20.28125 7.308594 C 20.28125 7.210938 20.296875 7.117188 20.324219 7.027344 C 20.324219 7.023438 20.328125 7.019531 20.328125 7.015625 C 20.382812 6.851562 20.492188 6.707031 20.65625 6.582031 Z M 18.859375 5.597656 L 19.875 5.597656 L 19.875 6.191406 L 18.859375 6.191406 Z M 18.859375 6.335938 L 19.875 6.335938 L 19.875 8.265625 L 18.859375 8.265625 Z M 16.953125 6.335938 L 17.265625 6.335938 C 17.265625 6.136719 17.289062 5.984375 17.339844 5.882812 C 17.386719 5.78125 17.492188 5.703125 17.644531 5.640625 C 17.804688 5.578125 18.011719 5.546875 18.277344 5.546875 C 18.378906 5.546875 18.484375 5.550781 18.589844 5.558594 L 18.589844 6.054688 L 18.550781 6.054688 C 18.46875 6.054688 18.402344 6.066406 18.351562 6.085938 C 18.300781 6.109375 18.269531 6.132812 18.253906 6.164062 C 18.238281 6.195312 18.234375 6.25 18.234375 6.332031 L 18.589844 6.332031 L 18.589844 6.824219 L 18.234375 6.824219 L 18.234375 8.265625 L 17.269531 8.265625 L 17.269531 6.824219 L 16.953125 6.824219 Z M 14.800781 6.335938 L 15.195312 6.335938 C 15.195312 6.179688 15.203125 6.0625 15.222656 5.984375 C 15.242188 5.90625 15.289062 5.832031 15.363281 5.761719 C 15.4375 5.691406 15.542969 5.640625 15.667969 5.601562 C 15.792969 5.566406 15.964844 5.546875 16.183594 5.546875 C 16.414062 5.546875 16.636719 5.558594 16.847656 5.585938 L 16.847656 6.082031 C 16.683594 6.066406 16.558594 6.058594 16.480469 6.058594 C 16.398438 6.058594 16.328125 6.070312 16.261719 6.09375 C 16.195312 6.117188 16.160156 6.175781 16.160156 6.269531 L 16.160156 6.335938 L 16.832031 6.335938 L 16.832031 6.828125 L 16.167969 6.828125 L 16.167969 8.265625 L 15.195312 8.265625 L 15.195312 6.824219 L 14.800781 6.824219 Z M 11.730469 6.015625 C 12.027344 5.761719 12.441406 5.636719 12.972656 5.636719 C 13.464844 5.636719 13.863281 5.753906 14.171875 5.996094 C 14.484375 6.230469 14.636719 6.550781 14.636719 6.945312 C 14.636719 6.972656 14.636719 6.996094 14.636719 7.023438 C 14.636719 7.027344 14.636719 7.03125 14.636719 7.035156 C 14.617188 7.40625 14.460938 7.707031 14.171875 7.933594 C 13.863281 8.183594 13.460938 8.304688 12.964844 8.304688 C 12.46875 8.304688 12.0625 8.183594 11.753906 7.941406 C 11.457031 7.714844 11.300781 7.410156 11.285156 7.03125 C 11.285156 7.027344 11.285156 7.023438 11.285156 7.019531 C 11.285156 7.003906 11.285156 6.988281 11.285156 6.972656 C 11.28125 6.585938 11.429688 6.265625 11.730469 6.015625 Z M 11.730469 6.015625 " fill-opacity="1" fill-rule="nonzero"/></g><g clip-path="url(#a422ee75b0)"><path fill="#d01e2a" d="M 9.148438 4.332031 L 8.824219 4.332031 C 8.332031 4.332031 7.929688 4.726562 7.929688 5.222656 L 7.929688 5.621094 C 7.929688 4.910156 8.472656 4.332031 9.148438 4.332031 Z M 9.148438 4.332031 " fill-opacity="1" fill-rule="nonzero"/></g><g clip-path="url(#fa13f97960)"><path fill="#d01e2a" d="M 29.613281 5.617188 L 29.613281 5.222656 C 29.613281 4.730469 29.214844 4.332031 28.71875 4.332031 L 28.390625 4.332031 C 29.070312 4.332031 29.613281 4.910156 29.613281 5.617188 Z M 29.613281 5.617188 " fill-opacity="1" fill-rule="nonzero"/></g><path fill="#d01e2a" d="M 24.847656 7.03125 C 24.847656 7.027344 24.847656 7.023438 24.847656 7.019531 C 24.839844 6.917969 24.804688 6.847656 24.742188 6.808594 C 24.671875 6.765625 24.585938 6.742188 24.480469 6.742188 C 24.257812 6.742188 24.136719 6.835938 24.121094 7.019531 C 24.121094 7.023438 24.121094 7.027344 24.121094 7.03125 C 24.121094 7.046875 24.121094 7.058594 24.121094 7.074219 L 24.851562 7.074219 C 24.851562 7.058594 24.847656 7.046875 24.847656 7.03125 Z M 24.847656 7.03125 " fill-opacity="1" fill-rule="nonzero"/><path fill="#d01e2a" d="M 12.445312 7.03125 C 12.453125 7.488281 12.625 7.714844 12.957031 7.714844 C 13.136719 7.714844 13.273438 7.65625 13.351562 7.535156 C 13.417969 7.4375 13.457031 7.269531 13.46875 7.027344 C 13.46875 7.023438 13.46875 7.019531 13.46875 7.015625 C 13.46875 6.976562 13.472656 6.9375 13.472656 6.894531 C 13.472656 6.445312 13.308594 6.21875 12.980469 6.21875 C 12.625 6.21875 12.449219 6.472656 12.449219 6.988281 C 12.449219 6.996094 12.449219 7.007812 12.449219 7.015625 C 12.445312 7.023438 12.445312 7.027344 12.445312 7.03125 Z M 12.445312 7.03125 " fill-opacity="1" fill-rule="nonzero"/></svg>