<svg xmlns="http://www.w3.org/2000/svg" xmlns:xlink="http://www.w3.org/1999/xlink" width="50" zoomAndPan="magnify" viewBox="0 0 37.5 37.499999" height="50" preserveAspectRatio="xMidYMid meet" version="1.0"><defs><clipPath id="c6e1d60ecf"><path d="M 8.808594 14.285156 L 27.605469 14.285156 L 27.605469 32.195312 L 8.808594 32.195312 Z M 8.808594 14.285156 " clip-rule="nonzero"/></clipPath><clipPath id="729133ca82"><path d="M 10.289062 14.285156 L 26.125 14.285156 C 26.519531 14.285156 26.894531 14.441406 27.171875 14.71875 C 27.449219 14.996094 27.605469 15.371094 27.605469 15.765625 L 27.605469 30.714844 C 27.605469 31.109375 27.449219 31.484375 27.171875 31.761719 C 26.894531 32.039062 26.519531 32.195312 26.125 32.195312 L 10.289062 32.195312 C 9.894531 32.195312 9.519531 32.039062 9.242188 31.761719 C 8.964844 31.484375 8.808594 31.109375 8.808594 30.714844 L 8.808594 15.765625 C 8.808594 15.371094 8.964844 14.996094 9.242188 14.71875 C 9.519531 14.441406 9.894531 14.285156 10.289062 14.285156 Z M 10.289062 14.285156 " clip-rule="nonzero"/></clipPath><clipPath id="11fed1f6f0"><path d="M 5 7 L 32 7 L 32 35.78125 L 5 35.78125 Z M 5 7 " clip-rule="nonzero"/></clipPath><clipPath id="eeb2043c27"><path d="M 0 0.996094 L 37.007812 0.996094 L 37.007812 20 L 0 20 Z M 0 0.996094 " clip-rule="nonzero"/></clipPath><clipPath id="dce8f204e3"><path d="M 10.804688 17 L 21 17 L 21 27.605469 L 10.804688 27.605469 Z M 10.804688 17 " clip-rule="nonzero"/></clipPath><clipPath id="93a95c5c11"><path d="M 17 14.285156 L 25.609375 14.285156 L 25.609375 21 L 17 21 Z M 17 14.285156 " clip-rule="nonzero"/></clipPath></defs><g clip-path="url(#c6e1d60ecf)"><g clip-path="url(#729133ca82)"><path fill="#ffffff" d="M 8.808594 14.285156 L 27.605469 14.285156 L 27.605469 32.195312 L 8.808594 32.195312 Z M 8.808594 14.285156 " fill-opacity="1" fill-rule="nonzero"/></g></g><g clip-path="url(#11fed1f6f0)"><path fill="#d01e2a" d="M 31.496094 18.792969 Z M 31.496094 18.792969 L 18.507812 7.292969 L 5.511719 18.800781 L 5.511719 35.242188 C 5.511719 35.667969 5.855469 36.007812 6.28125 36.007812 L 14.402344 36.007812 L 14.402344 28.796875 C 14.402344 28.375 14.742188 28.03125 15.167969 28.03125 L 21.839844 28.03125 C 22.265625 28.03125 22.605469 28.375 22.605469 28.796875 L 22.605469 36.007812 L 30.730469 36.007812 C 31.152344 36.007812 31.496094 35.667969 31.496094 35.242188 Z M 5.511719 18.800781 Z M 5.511719 18.800781 " fill-opacity="1" fill-rule="nonzero"/></g><g clip-path="url(#eeb2043c27)"><path fill="#d01e2a" d="M 18.429688 0.996094 L 0 17.316406 L 1.941406 19.507812 L 18.507812 4.839844 L 35.070312 19.507812 L 37.007812 17.316406 L 18.578125 0.996094 L 18.507812 1.082031 L 18.433594 0.996094 Z M 18.429688 0.996094 " fill-opacity="1" fill-rule="nonzero"/></g><path fill="#d01e2a" d="M 5.511719 3.347656 L 10.183594 3.347656 L 10.144531 6.113281 L 5.511719 10.296875 Z M 5.511719 3.347656 " fill-opacity="1" fill-rule="nonzero"/><g clip-path="url(#dce8f204e3)"><path fill="#ffffff" d="M 20.269531 18.878906 L 17.511719 21.636719 C 17.3125 21.835938 17.15625 22.066406 17.042969 22.328125 L 17.027344 22.367188 C 16.914062 22.625 16.761719 22.855469 16.558594 23.054688 L 12.601562 27.015625 C 12.511719 27.109375 12.402344 27.179688 12.28125 27.230469 C 12.160156 27.28125 12.035156 27.304688 11.902344 27.304688 C 11.773438 27.304688 11.644531 27.28125 11.523438 27.230469 C 11.402344 27.179688 11.296875 27.109375 11.203125 27.015625 C 11.109375 26.921875 11.039062 26.816406 10.988281 26.695312 C 10.9375 26.574219 10.914062 26.445312 10.914062 26.316406 C 10.914062 26.183594 10.9375 26.058594 10.988281 25.9375 C 11.039062 25.816406 11.109375 25.710938 11.203125 25.617188 L 15.152344 21.667969 C 15.359375 21.460938 15.59375 21.300781 15.863281 21.1875 C 16.128906 21.074219 16.367188 20.917969 16.570312 20.710938 L 19.339844 17.945312 C 19.371094 17.910156 19.40625 17.914062 19.433594 17.953125 C 19.558594 18.105469 19.6875 18.25 19.828125 18.390625 C 19.964844 18.527344 20.113281 18.660156 20.265625 18.785156 C 20.300781 18.8125 20.304688 18.847656 20.269531 18.882812 Z M 20.269531 18.878906 " fill-opacity="1" fill-rule="nonzero"/></g><g clip-path="url(#93a95c5c11)"><path fill="#ffffff" d="M 25.515625 18.777344 L 24.863281 18.125 C 24.769531 18.03125 24.675781 18.03125 24.582031 18.125 C 24.289062 18.109375 24.035156 17.996094 23.824219 17.789062 L 23.804688 17.765625 C 23.714844 17.671875 23.652344 17.566406 23.609375 17.445312 C 23.570312 17.332031 23.511719 17.234375 23.425781 17.152344 L 22.628906 16.351562 C 21.945312 15.667969 21.152344 15.160156 20.246094 14.828125 C 19.339844 14.492188 18.40625 14.363281 17.445312 14.441406 C 17.40625 14.445312 17.386719 14.464844 17.386719 14.5 C 17.382812 14.535156 17.398438 14.558594 17.433594 14.570312 C 17.996094 14.722656 18.484375 15.007812 18.894531 15.421875 L 19.664062 16.191406 C 19.734375 16.257812 19.765625 16.339844 19.765625 16.4375 C 19.765625 16.535156 19.734375 16.621094 19.664062 16.6875 L 19.304688 17.046875 C 19.269531 17.082031 19.265625 17.125 19.289062 17.167969 C 19.730469 17.902344 20.316406 18.488281 21.046875 18.925781 C 21.09375 18.953125 21.132812 18.945312 21.167969 18.910156 L 21.527344 18.554688 C 21.597656 18.484375 21.679688 18.449219 21.777344 18.449219 C 21.875 18.449219 21.957031 18.484375 22.027344 18.554688 C 22.117188 18.640625 22.226562 18.707031 22.347656 18.746094 C 22.457031 18.785156 22.554688 18.847656 22.636719 18.929688 L 22.660156 18.953125 C 22.871094 19.160156 22.980469 19.414062 22.996094 19.710938 C 22.902344 19.800781 22.902344 19.894531 22.996094 19.988281 L 23.648438 20.640625 C 23.742188 20.734375 23.835938 20.734375 23.929688 20.640625 L 25.515625 19.054688 C 25.609375 18.964844 25.609375 18.871094 25.515625 18.777344 Z M 25.515625 18.777344 " fill-opacity="1" fill-rule="nonzero"/></g></svg>