<svg xmlns="http://www.w3.org/2000/svg" xmlns:xlink="http://www.w3.org/1999/xlink" width="50" zoomAndPan="magnify" viewBox="0 0 37.5 37.499999" height="50" preserveAspectRatio="xMidYMid meet" version="1.0"><defs><clipPath id="475cffc871"><path d="M 8.808594 14.285156 L 27.605469 14.285156 L 27.605469 32.195312 L 8.808594 32.195312 Z M 8.808594 14.285156 " clip-rule="nonzero"/></clipPath><clipPath id="d316b25cd4"><path d="M 10.289062 14.285156 L 26.125 14.285156 C 26.519531 14.285156 26.894531 14.441406 27.171875 14.71875 C 27.449219 14.996094 27.605469 15.371094 27.605469 15.765625 L 27.605469 30.714844 C 27.605469 31.109375 27.449219 31.484375 27.171875 31.761719 C 26.894531 32.039062 26.519531 32.195312 26.125 32.195312 L 10.289062 32.195312 C 9.894531 32.195312 9.519531 32.039062 9.242188 31.761719 C 8.964844 31.484375 8.808594 31.109375 8.808594 30.714844 L 8.808594 15.765625 C 8.808594 15.371094 8.964844 14.996094 9.242188 14.71875 C 9.519531 14.441406 9.894531 14.285156 10.289062 14.285156 Z M 10.289062 14.285156 " clip-rule="nonzero"/></clipPath><clipPath id="7dd143c8da"><path d="M 9 10 L 28 10 L 28 30.589844 L 9 30.589844 Z M 9 10 " clip-rule="nonzero"/></clipPath><clipPath id="d851162a4e"><path d="M 5.464844 6.167969 L 31.371094 6.167969 L 31.371094 20 L 5.464844 20 Z M 5.464844 6.167969 " clip-rule="nonzero"/></clipPath><clipPath id="8e3c61298a"><path d="M 1 23 L 9 23 L 9 30.570312 L 1 30.570312 Z M 1 23 " clip-rule="nonzero"/></clipPath><clipPath id="5e47839600"><path d="M 0 21.691406 L 9.621094 21.691406 L 9.621094 27 L 0 27 Z M 0 21.691406 " clip-rule="nonzero"/></clipPath><clipPath id="85ca71ff5a"><path d="M 28 23 L 36 23 L 36 30.570312 L 28 30.570312 Z M 28 23 " clip-rule="nonzero"/></clipPath><clipPath id="28b168cfc5"><path d="M 27.335938 21.691406 L 36.960938 21.691406 L 36.960938 27 L 27.335938 27 Z M 27.335938 21.691406 " clip-rule="nonzero"/></clipPath></defs><g clip-path="url(#475cffc871)"><g clip-path="url(#d316b25cd4)"><path fill="#ffffff" d="M 8.808594 14.285156 L 27.605469 14.285156 L 27.605469 32.195312 L 8.808594 32.195312 Z M 8.808594 14.285156 " fill-opacity="1" fill-rule="nonzero"/></g></g><g clip-path="url(#7dd143c8da)"><path fill="#d01e2a" d="M 27.652344 18.707031 Z M 27.652344 18.707031 L 18.503906 10.605469 L 9.347656 18.710938 L 9.347656 30.292969 C 9.347656 30.589844 9.589844 30.832031 9.890625 30.832031 L 15.609375 30.832031 L 15.609375 25.753906 C 15.609375 25.453125 15.851562 25.210938 16.148438 25.210938 L 20.851562 25.210938 C 21.148438 25.210938 21.390625 25.453125 21.390625 25.753906 L 21.390625 30.832031 L 27.113281 30.832031 C 27.410156 30.832031 27.652344 30.589844 27.652344 30.292969 Z M 9.347656 18.710938 Z M 9.347656 18.710938 " fill-opacity="1" fill-rule="nonzero"/></g><g clip-path="url(#d851162a4e)"><path fill="#d01e2a" d="M 18.449219 6.171875 L 5.464844 17.664062 L 6.835938 19.207031 L 18.503906 8.875 L 30.167969 19.207031 L 31.535156 17.664062 L 18.554688 6.171875 L 18.503906 6.230469 Z M 18.449219 6.171875 " fill-opacity="1" fill-rule="nonzero"/></g><path fill="#d01e2a" d="M 9.347656 7.824219 L 12.640625 7.824219 L 12.613281 9.773438 L 9.347656 12.722656 Z M 9.347656 7.824219 " fill-opacity="1" fill-rule="nonzero"/><g clip-path="url(#8e3c61298a)"><path fill="#d01e2a" d="M 8.226562 26.339844 Z M 8.226562 26.339844 L 4.835938 23.335938 L 1.441406 26.339844 L 1.441406 30.636719 C 1.441406 30.746094 1.53125 30.835938 1.640625 30.835938 L 3.761719 30.835938 L 3.761719 28.953125 C 3.761719 28.84375 3.851562 28.753906 3.960938 28.753906 L 5.707031 28.753906 C 5.816406 28.753906 5.90625 28.84375 5.90625 28.953125 L 5.90625 30.835938 L 8.027344 30.835938 C 8.140625 30.835938 8.226562 30.746094 8.226562 30.636719 Z M 1.441406 26.339844 Z M 1.441406 26.339844 " fill-opacity="1" fill-rule="nonzero"/></g><g clip-path="url(#5e47839600)"><path fill="#d01e2a" d="M 4.816406 21.691406 L 0 25.953125 L 0.507812 26.527344 L 4.835938 22.695312 L 9.160156 26.527344 L 9.667969 25.953125 L 4.855469 21.691406 L 4.835938 21.710938 Z M 4.816406 21.691406 " fill-opacity="1" fill-rule="nonzero"/></g><path fill="#d01e2a" d="M 1.441406 22.304688 L 2.660156 22.304688 L 2.648438 23.027344 L 1.441406 24.121094 Z M 1.441406 22.304688 " fill-opacity="1" fill-rule="nonzero"/><g clip-path="url(#85ca71ff5a)"><path fill="#d01e2a" d="M 35.566406 26.339844 Z M 35.566406 26.339844 L 32.171875 23.335938 L 28.777344 26.339844 L 28.777344 30.636719 C 28.777344 30.746094 28.867188 30.835938 28.976562 30.835938 L 31.101562 30.835938 L 31.101562 28.953125 C 31.101562 28.84375 31.1875 28.753906 31.300781 28.753906 L 33.042969 28.753906 C 33.15625 28.753906 33.242188 28.84375 33.242188 28.953125 L 33.242188 30.835938 L 35.367188 30.835938 C 35.476562 30.835938 35.566406 30.746094 35.566406 30.636719 Z M 28.777344 26.339844 Z M 28.777344 26.339844 " fill-opacity="1" fill-rule="nonzero"/></g><g clip-path="url(#28b168cfc5)"><path fill="#d01e2a" d="M 32.152344 21.691406 L 27.335938 25.953125 L 27.84375 26.527344 L 32.171875 22.695312 L 36.5 26.527344 L 37.003906 25.953125 L 32.191406 21.691406 L 32.171875 21.710938 Z M 32.152344 21.691406 " fill-opacity="1" fill-rule="nonzero"/></g><path fill="#d01e2a" d="M 28.777344 22.304688 L 30 22.304688 L 29.988281 23.027344 L 28.777344 24.121094 Z M 28.777344 22.304688 " fill-opacity="1" fill-rule="nonzero"/></svg>